<svg width="18" height="18" viewBox="0 0 18 18" fill="none" xmlns="http://www.w3.org/2000/svg">
<g clip-path="url(#clip0_1232_1476)">
<path d="M15 0H3C1.34 0 0 1.34 0 3V15C0 16.66 1.34 18 3 18H15C16.66 18 18 16.66 18 15V3C18 1.34 16.66 0 15 0ZM8.21 9.71L5.38 12.54C4.95 12.97 4.25 12.97 3.82 12.54C3.39 12.11 3.39 11.41 3.82 10.98L5.87 8.93L3.82 6.88C3.39 6.45 3.39 5.75 3.82 5.32C4.25 4.89 4.95 4.89 5.38 5.32L8.21 8.15C8.64 8.58 8.64 9.28 8.21 9.71ZM13.9 13H10.1C9.49 13 9 12.51 9 11.9C9 11.29 9.49 10.8 10.1 10.8H13.9C14.51 10.8 15 11.29 15 11.9C15 12.51 14.51 13 13.9 13Z" fill="#2F6DEA"/>
</g>
<defs>
<clipPath id="clip0_1232_1476">
<rect width="18" height="18" fill="white"/>
</clipPath>
</defs>
</svg>
