<svg xmlns="http://www.w3.org/2000/svg" width="174" height="40" viewBox="0 0 174 40" fill="none"><path d="M133.711 15.8438C133.711 13.3593 133.74 11.0237 133.692 8.69174C133.677 7.92187 133.931 7.70243 134.663 7.73591C135.799 7.7917 136.939 7.7731 138.079 7.73963C138.689 7.72103 138.954 7.88096 138.95 8.56529C138.932 18.1013 138.932 27.641 138.954 37.1771C138.954 37.9172 138.671 38.0957 138.016 38.0697C137.108 38.0325 136.192 38.0139 135.284 38.0734C134.508 38.1255 134.181 37.8391 134.152 37.0543C134.115 36.0613 133.847 35.9534 132.971 36.5931C129.839 38.8767 126.379 39.111 122.812 37.8093C121.062 37.1696 119.959 35.7638 119.426 34.0083C118.124 29.7387 117.977 25.4021 119.228 21.1139C120.338 17.3091 123.14 15.4123 127.504 15.1892C129.563 15.085 131.582 15.3528 133.711 15.8438ZM133.95 26.436C133.95 24.7549 133.916 23.0701 133.968 21.3891C133.986 20.7271 133.751 20.4444 133.155 20.2547C130.99 19.5741 128.828 19.615 126.666 20.2138C125.522 20.5299 124.732 21.2812 124.427 22.4416C123.684 25.3054 123.688 28.1878 124.423 31.0515C124.746 32.3123 125.64 33.0487 126.89 33.3165C129.023 33.774 131.096 33.5955 133.119 32.7401C133.711 32.4909 133.99 32.1785 133.964 31.4755C133.913 29.8019 133.95 28.1171 133.95 26.436Z" fill="#2F6DEA"></path><path d="M71.7527 20.4035C71.7527 19.0943 71.76 17.841 71.749 16.5876C71.7453 16.2157 71.9071 16.0074 72.2527 15.9442C76.0325 15.2784 79.827 14.661 83.6325 15.6355C87.2615 16.5616 88.7102 18.3654 88.78 22.1627C88.872 27.1761 88.8021 32.1896 88.8242 37.2031C88.8278 37.854 88.6109 38.092 87.9711 38.0697C86.949 38.0362 85.9232 38.0176 84.901 38.0771C84.1105 38.1217 83.8053 37.8279 83.8237 37.0395C83.8458 36.1766 83.5994 36.0167 82.7942 36.5411C80.1285 38.2705 77.1981 38.7949 74.0875 38.1589C72.0799 37.7461 70.7894 36.4853 70.2268 34.5253C69.701 32.6992 69.6679 30.8321 70.0797 28.9651C70.5357 26.8898 71.8115 25.5992 73.8191 25.0748C76.6943 24.3235 79.6027 24.4165 82.5037 24.9037C83.1655 25.0153 83.3383 24.9223 83.3567 24.2268C83.4376 21.1027 82.3603 19.9126 79.2313 19.7898C76.7568 19.6968 74.3081 19.9126 71.7527 20.4035ZM78.7754 28.5262C77.8452 28.5188 77.0547 28.5374 76.2678 28.7159C74.9662 29.0134 74.4662 29.6234 74.4037 31.0478C74.3338 32.5913 74.8228 33.4467 76.0546 33.8112C77.676 34.291 79.2791 34.0157 80.8602 33.5657C83.092 32.9297 83.0883 32.9223 83.0883 30.6387C83.0883 30.3337 83.0589 30.0251 83.092 29.7238C83.1655 29.0767 82.8493 28.8089 82.2537 28.794C81.044 28.7605 79.8601 28.4035 78.7754 28.5262Z" fill="#2F6DEA"></path><path d="M168.199 36.0167C166.614 37.2626 164.831 37.9358 162.904 38.2557C161.386 38.5086 159.871 38.4974 158.393 38.0846C155.845 37.3705 154.83 35.4179 154.518 32.9632C154.393 31.9739 154.374 30.9697 154.51 29.9804C155.003 26.4137 156.882 24.8517 161.007 24.6211C163.092 24.5021 165.184 24.4686 167.239 24.9298C167.761 25.0451 167.875 24.9186 167.92 24.4054C168.181 21.2329 167.092 19.9535 163.897 19.801C161.617 19.6931 159.342 19.8456 157.102 20.2845C156.474 20.4072 156.29 20.2882 156.312 19.6522C156.349 18.6964 156.345 17.7369 156.312 16.781C156.293 16.2603 156.503 16 156.992 15.9144C160.286 15.3194 163.596 14.8694 166.942 15.3677C171.085 15.9851 173.071 18.6741 173.313 22.8321C173.593 27.6039 173.365 32.4054 173.394 37.1957C173.398 37.9432 173.108 38.118 172.453 38.0734C171.887 38.0325 171.313 38.066 170.747 38.066C168.684 38.0623 168.684 38.0623 168.199 36.0167ZM167.666 30.9251C167.666 30.5049 167.64 30.0809 167.673 29.6606C167.714 29.1548 167.548 28.8647 167.019 28.8089C164.985 28.6043 162.952 28.2845 160.908 28.7159C159.603 28.9911 159.084 29.6346 159.025 31.0441C158.959 32.5988 159.456 33.4542 160.691 33.8075C162.441 34.3096 164.154 33.9897 165.831 33.4505C167.673 32.8591 167.666 32.8331 167.666 30.9251Z" fill="#2F6DEA"></path><path d="M98.4902 17.878C101.582 15.3118 104.983 14.7688 108.601 15.401C111.969 15.9887 113.841 18.1384 113.903 21.56C113.999 26.7669 113.959 31.9775 114.006 37.1844C114.014 37.917 113.738 38.0993 113.072 38.0732C111.936 38.0323 110.793 38.0212 109.657 38.0732C108.877 38.1104 108.708 37.7831 108.712 37.0579C108.738 32.5391 108.73 28.0165 108.723 23.4977C108.719 21.1807 107.936 20.2323 105.653 19.8789C103.645 19.5702 101.741 20.0203 99.8911 20.8013C99.1999 21.0914 98.9609 21.5265 98.9646 22.2927C98.9976 27.1202 98.9462 31.944 99.0087 36.7715C99.0234 37.8687 98.6741 38.1588 97.6593 38.077C96.6408 37.9951 95.6113 38.036 94.5855 38.0658C93.9788 38.0844 93.6957 37.917 93.6957 37.2327C93.7141 30.2629 93.7104 23.2894 93.6957 16.3197C93.6957 15.7134 93.9126 15.5052 94.4935 15.5275C95.3282 15.5572 96.1739 15.6205 96.9938 15.5126C98.0233 15.375 98.3468 15.8436 98.3542 16.7622C98.3689 17.0635 98.4314 17.361 98.4902 17.878Z" fill="#2F6DEA"></path><path d="M54.2729 26.3244C54.2729 24.3049 54.2435 22.6201 54.2876 20.9353C54.306 20.2212 54.1405 19.9311 53.3574 19.9349C51.3425 19.9423 51.3425 19.9014 51.3425 17.8893C51.3425 17.8521 51.3425 17.8112 51.3425 17.774C51.3425 15.6317 51.3425 15.5908 53.464 15.6057C54.2766 15.6094 54.4641 15.3082 54.5192 14.5532C54.6663 12.5708 54.9641 10.5997 55.0928 8.61362C55.1443 7.814 55.4679 7.65407 56.1444 7.68755C56.8651 7.72474 57.5931 7.75449 58.3064 7.68011C59.2292 7.58341 59.5675 7.86235 59.5234 8.85909C59.4425 10.7708 59.5307 12.6899 59.4829 14.6015C59.4646 15.3491 59.6815 15.6169 60.4389 15.5946C62.1817 15.5499 63.9319 15.6206 65.6747 15.5611C66.4946 15.535 66.7373 15.8289 66.6821 16.6099C66.627 17.3723 66.627 18.1422 66.6821 18.9046C66.7373 19.6857 66.491 19.9906 65.6673 19.9646C63.9245 19.9088 62.178 19.9832 60.4316 19.9311C59.6594 19.9051 59.4756 20.184 59.4866 20.9167C59.5197 23.9813 59.4829 27.0422 59.5087 30.1069C59.5271 32.4239 60.4205 33.3351 62.7296 33.5285C63.9135 33.6289 65.0754 33.4318 66.2409 33.3128C66.8586 33.2496 67.0498 33.4318 67.0167 34.038C66.98 34.8005 66.9322 35.5778 67.0278 36.3328C67.1638 37.4262 66.7888 37.9134 65.6821 38.0585C63.6819 38.3226 61.7037 38.5717 59.6925 38.1775C56.6444 37.5787 54.9237 35.76 54.4678 32.6359C54.1479 30.4304 54.3428 28.2063 54.2729 26.3244Z" fill="#2F6DEA"></path><path d="M149.878 26.7821C149.878 30.1889 149.852 33.5994 149.896 37.0062C149.907 37.8244 149.646 38.0624 148.863 38.0215C147.727 37.962 146.587 37.9843 145.451 38.0141C144.892 38.0289 144.638 37.8876 144.642 37.2554C144.66 30.2856 144.66 23.3195 144.642 16.3498C144.642 15.7361 144.852 15.5576 145.432 15.5762C146.609 15.6096 147.786 15.632 148.959 15.5687C149.742 15.5278 149.9 15.8402 149.892 16.558C149.859 19.9685 149.878 23.3753 149.878 26.7821Z" fill="#2F6DEA"></path><path d="M25.6342 37.4115C25.6306 32.1005 24.3179 27.3251 21.9942 22.8174C17.832 14.7281 11.3498 9.43945 2.82693 6.59054C-0.037308 5.63099 -0.849884 3.22467 0.966463 1.1382C1.7055 0.286506 2.68721 -0.00359155 3.81967 0.000127644C14.6295 0.0187236 25.4394 0.0112853 36.2529 0.0112853C37.9994 0.0112853 39.7422 -0.0221875 41.4887 0.0261621C44.0698 0.100546 45.603 2.68539 44.2647 5.00245C38.1575 15.5761 32.1201 26.1944 26.0607 36.7941C25.9688 36.9578 25.8475 37.1028 25.6342 37.4115Z" fill="#2F6DEA"></path><path d="M17.1592 18.6335C17.7034 18.9794 17.9607 19.5485 18.2733 20.0506C21.3728 25.0157 23.2627 30.3899 23.6414 36.2774C23.7591 38.111 22.4943 39.7846 20.8103 39.9743C18.8027 40.1975 17.207 38.9627 17.0342 36.9543C16.9349 35.8162 16.9827 34.6633 16.9827 33.5178C16.979 28.9692 16.9754 24.4206 16.9864 19.8683C16.9937 19.4704 16.854 19.0315 17.1592 18.6335Z" fill="#2F6DEA"></path><path d="M147.359 7.83276C150.116 7.83276 150.116 7.83276 150.116 10.6184C150.116 12.4483 150.116 12.4483 148.348 12.4483C147.322 12.4483 146.3 12.4223 145.274 12.4557C144.689 12.4743 144.428 12.2735 144.483 11.6673C144.513 11.3623 144.487 11.0536 144.487 10.7486C144.491 7.83276 144.491 7.83276 147.359 7.83276Z" fill="#2F6DEA"></path></svg>